<mxfile host="65bd71144e">
    <diagram id="XKmMKUCSQDm1OHIs7o2M" name="ページ1">
        <mxGraphModel dx="789" dy="1024" grid="1" gridSize="10" guides="1" tooltips="1" connect="1" arrows="1" fold="1" page="1" pageScale="1" pageWidth="827" pageHeight="1169" math="0" shadow="0">
            <root>
                <mxCell id="0"/>
                <mxCell id="1" parent="0"/>
                <mxCell id="2" value="" style="rounded=0;whiteSpace=wrap;html=1;" parent="1" vertex="1">
                    <mxGeometry width="720" height="720" as="geometry"/>
                </mxCell>
                <mxCell id="6" value="" style="shape=table;html=1;whiteSpace=wrap;startSize=0;container=1;collapsible=0;childLayout=tableLayout;" vertex="1" parent="1">
                    <mxGeometry x="40" y="50" width="330" height="280" as="geometry"/>
                </mxCell>
                <mxCell id="7" value="" style="shape=tableRow;horizontal=0;startSize=0;swimlaneHead=0;swimlaneBody=0;top=0;left=0;bottom=0;right=0;collapsible=0;dropTarget=0;fillColor=none;points=[[0,0.5],[1,0.5]];portConstraint=eastwest;" vertex="1" parent="6">
                    <mxGeometry width="330" height="40" as="geometry"/>
                </mxCell>
                <mxCell id="8" value="タイトル" style="shape=partialRectangle;html=1;whiteSpace=wrap;connectable=0;fillColor=none;top=0;left=0;bottom=0;right=0;overflow=hidden;align=left;" vertex="1" parent="7">
                    <mxGeometry width="165" height="40" as="geometry">
                        <mxRectangle width="165" height="40" as="alternateBounds"/>
                    </mxGeometry>
                </mxCell>
                <mxCell id="9" value="ルシゼロ　火マナ" style="shape=partialRectangle;html=1;whiteSpace=wrap;connectable=0;fillColor=none;top=0;left=0;bottom=0;right=0;overflow=hidden;align=left;" vertex="1" parent="7">
                    <mxGeometry x="165" width="165" height="40" as="geometry">
                        <mxRectangle width="165" height="40" as="alternateBounds"/>
                    </mxGeometry>
                </mxCell>
                <mxCell id="31" style="shape=tableRow;horizontal=0;startSize=0;swimlaneHead=0;swimlaneBody=0;top=0;left=0;bottom=0;right=0;collapsible=0;dropTarget=0;fillColor=none;points=[[0,0.5],[1,0.5]];portConstraint=eastwest;" vertex="1" parent="6">
                    <mxGeometry y="40" width="330" height="40" as="geometry"/>
                </mxCell>
                <mxCell id="32" value="クエスト" style="shape=partialRectangle;html=1;whiteSpace=wrap;connectable=0;fillColor=none;top=0;left=0;bottom=0;right=0;overflow=hidden;align=left;" vertex="1" parent="31">
                    <mxGeometry width="165" height="40" as="geometry">
                        <mxRectangle width="165" height="40" as="alternateBounds"/>
                    </mxGeometry>
                </mxCell>
                <mxCell id="33" value="ダーク・ラプチャー・ゼロ" style="shape=partialRectangle;html=1;whiteSpace=wrap;connectable=0;fillColor=none;top=0;left=0;bottom=0;right=0;overflow=hidden;align=left;" vertex="1" parent="31">
                    <mxGeometry x="165" width="165" height="40" as="geometry">
                        <mxRectangle width="165" height="40" as="alternateBounds"/>
                    </mxGeometry>
                </mxCell>
                <mxCell id="11" value="" style="shape=tableRow;horizontal=0;startSize=0;swimlaneHead=0;swimlaneBody=0;top=0;left=0;bottom=0;right=0;collapsible=0;dropTarget=0;fillColor=none;points=[[0,0.5],[1,0.5]];portConstraint=eastwest;" vertex="1" parent="6">
                    <mxGeometry y="80" width="330" height="40" as="geometry"/>
                </mxCell>
                <mxCell id="12" value="作成者" style="shape=partialRectangle;html=1;whiteSpace=wrap;connectable=0;fillColor=none;top=0;left=0;bottom=0;right=0;overflow=hidden;align=left;" vertex="1" parent="11">
                    <mxGeometry width="165" height="40" as="geometry">
                        <mxRectangle width="165" height="40" as="alternateBounds"/>
                    </mxGeometry>
                </mxCell>
                <mxCell id="13" value="鈴木太郎" style="shape=partialRectangle;html=1;whiteSpace=wrap;connectable=0;fillColor=none;top=0;left=0;bottom=0;right=0;overflow=hidden;align=left;" vertex="1" parent="11">
                    <mxGeometry x="165" width="165" height="40" as="geometry">
                        <mxRectangle width="165" height="40" as="alternateBounds"/>
                    </mxGeometry>
                </mxCell>
                <mxCell id="15" value="" style="shape=tableRow;horizontal=0;startSize=0;swimlaneHead=0;swimlaneBody=0;top=0;left=0;bottom=0;right=0;collapsible=0;dropTarget=0;fillColor=none;points=[[0,0.5],[1,0.5]];portConstraint=eastwest;" vertex="1" parent="6">
                    <mxGeometry y="120" width="330" height="40" as="geometry"/>
                </mxCell>
                <mxCell id="16" value="概要" style="shape=partialRectangle;html=1;whiteSpace=wrap;connectable=0;fillColor=none;top=0;left=0;bottom=0;right=0;overflow=hidden;align=left;" vertex="1" parent="15">
                    <mxGeometry width="165" height="40" as="geometry">
                        <mxRectangle width="165" height="40" as="alternateBounds"/>
                    </mxGeometry>
                </mxCell>
                <mxCell id="17" value="ルシゼロの火マナ編成" style="shape=partialRectangle;html=1;whiteSpace=wrap;connectable=0;fillColor=none;top=0;left=0;bottom=0;right=0;overflow=hidden;align=left;" vertex="1" parent="15">
                    <mxGeometry x="165" width="165" height="40" as="geometry">
                        <mxRectangle width="165" height="40" as="alternateBounds"/>
                    </mxGeometry>
                </mxCell>
                <mxCell id="19" style="shape=tableRow;horizontal=0;startSize=0;swimlaneHead=0;swimlaneBody=0;top=0;left=0;bottom=0;right=0;collapsible=0;dropTarget=0;fillColor=none;points=[[0,0.5],[1,0.5]];portConstraint=eastwest;" vertex="1" parent="6">
                    <mxGeometry y="160" width="330" height="40" as="geometry"/>
                </mxCell>
                <mxCell id="20" value="更新日時" style="shape=partialRectangle;html=1;whiteSpace=wrap;connectable=0;fillColor=none;top=0;left=0;bottom=0;right=0;overflow=hidden;align=left;" vertex="1" parent="19">
                    <mxGeometry width="165" height="40" as="geometry">
                        <mxRectangle width="165" height="40" as="alternateBounds"/>
                    </mxGeometry>
                </mxCell>
                <mxCell id="21" value="&lt;div style=&quot;background-color: rgb(31, 31, 31); line-height: 19px;&quot;&gt;&lt;font color=&quot;#ffffff&quot; face=&quot;Cascadia Code, JetBrainsMono NF Thin, Consolas, Courier New, monospace, Consolas, Courier New, monospace&quot;&gt;&lt;span style=&quot;font-size: 14px;&quot;&gt;2024-12-31 23:59:59&lt;/span&gt;&lt;/font&gt;&lt;br&gt;&lt;/div&gt;" style="shape=partialRectangle;html=1;whiteSpace=wrap;connectable=0;fillColor=none;top=0;left=0;bottom=0;right=0;overflow=hidden;align=left;" vertex="1" parent="19">
                    <mxGeometry x="165" width="165" height="40" as="geometry">
                        <mxRectangle width="165" height="40" as="alternateBounds"/>
                    </mxGeometry>
                </mxCell>
                <mxCell id="22" style="shape=tableRow;horizontal=0;startSize=0;swimlaneHead=0;swimlaneBody=0;top=0;left=0;bottom=0;right=0;collapsible=0;dropTarget=0;fillColor=none;points=[[0,0.5],[1,0.5]];portConstraint=eastwest;" vertex="1" parent="6">
                    <mxGeometry y="200" width="330" height="40" as="geometry"/>
                </mxCell>
                <mxCell id="23" value="参考動画URL" style="shape=partialRectangle;html=1;whiteSpace=wrap;connectable=0;fillColor=none;top=0;left=0;bottom=0;right=0;overflow=hidden;align=left;" vertex="1" parent="22">
                    <mxGeometry width="165" height="40" as="geometry">
                        <mxRectangle width="165" height="40" as="alternateBounds"/>
                    </mxGeometry>
                </mxCell>
                <mxCell id="24" value="https://youtube.com/" style="shape=partialRectangle;html=1;whiteSpace=wrap;connectable=0;fillColor=none;top=0;left=0;bottom=0;right=0;overflow=hidden;align=left;" vertex="1" parent="22">
                    <mxGeometry x="165" width="165" height="40" as="geometry">
                        <mxRectangle width="165" height="40" as="alternateBounds"/>
                    </mxGeometry>
                </mxCell>
                <mxCell id="25" style="shape=tableRow;horizontal=0;startSize=0;swimlaneHead=0;swimlaneBody=0;top=0;left=0;bottom=0;right=0;collapsible=0;dropTarget=0;fillColor=none;points=[[0,0.5],[1,0.5]];portConstraint=eastwest;" vertex="1" parent="6">
                    <mxGeometry y="240" width="330" height="40" as="geometry"/>
                </mxCell>
                <mxCell id="26" value="その他ノート" style="shape=partialRectangle;html=1;whiteSpace=wrap;connectable=0;fillColor=none;top=0;left=0;bottom=0;right=0;overflow=hidden;align=left;" vertex="1" parent="25">
                    <mxGeometry width="165" height="40" as="geometry">
                        <mxRectangle width="165" height="40" as="alternateBounds"/>
                    </mxGeometry>
                </mxCell>
                <mxCell id="27" value="自由に記述するエリアです" style="shape=partialRectangle;html=1;whiteSpace=wrap;connectable=0;fillColor=none;top=0;left=0;bottom=0;right=0;overflow=hidden;align=left;" vertex="1" parent="25">
                    <mxGeometry x="165" width="165" height="40" as="geometry">
                        <mxRectangle width="165" height="40" as="alternateBounds"/>
                    </mxGeometry>
                </mxCell>
            </root>
        </mxGraphModel>
    </diagram>
</mxfile>